<svg width="2414" height="534" viewBox="0 0 2414 534" fill="none" xmlns="http://www.w3.org/2000/svg">
<path d="M3.93912 526.642C2.36347 525.063 1.57565 520.852 1.57565 514.009C1.57565 505.061 2.36347 500.587 3.93912 500.587C8.66607 500.587 14.7061 499.797 22.0591 498.218C29.9373 496.639 37.2903 494.533 44.1182 491.901C51.4712 489.27 55.6729 486.374 56.7233 483.216C60.3999 472.689 62.2381 448.738 62.2381 411.365V112.908C62.2381 80.7992 60.3999 59.2177 56.7233 48.1637C55.6729 43.9527 51.7338 40.5312 44.906 37.8993C38.6034 34.741 31.2504 32.3723 22.8469 30.7932C14.9687 29.214 8.40346 28.4245 3.1513 28.4245C1.05043 28.4245 0 24.4766 0 16.5809C0 9.21164 1.05043 4.47422 3.1513 2.36871C20.4834 3.42146 37.8156 4.47422 55.1477 5.52698C72.4798 6.05336 90.0746 6.31655 107.932 6.31655C119.487 6.31655 135.506 6.05336 155.989 5.52698C176.473 4.47422 201.158 3.42146 230.045 2.36871C288.344 0.789569 332.462 0 362.399 0C363.45 7.89569 365.025 17.3705 367.126 28.4245C369.227 39.4784 371.853 51.8484 375.004 65.5342L385.246 112.119C382.62 114.751 377.105 116.067 368.702 116.067C362.924 116.067 359.248 114.224 357.672 110.54C340.34 63.6919 306.726 40.268 256.831 40.268H215.864C176.473 40.268 156.514 43.6895 155.989 50.5324C152.838 65.271 151.262 86.5894 151.262 114.487V238.45C151.262 241.608 162.817 243.187 185.926 243.187H230.045C259.982 243.187 278.102 241.871 284.405 239.239C290.182 236.607 294.646 227.396 297.798 211.604C299.373 204.762 300.949 198.182 302.524 191.865C303.05 188.181 307.251 186.338 315.13 186.338C322.483 186.338 327.472 187.654 330.098 190.286V339.515C327.997 341.62 323.008 342.673 315.13 342.673C308.302 342.673 304.1 340.567 302.524 336.356C300.424 328.987 298.585 322.934 297.01 318.196C295.434 312.932 294.121 308.458 293.071 304.774C290.445 298.983 288.869 295.825 288.344 295.299C287.818 294.246 285.192 292.14 280.465 288.982C273.112 284.771 248.952 282.666 207.986 282.666C170.17 282.666 151.262 284.771 151.262 288.982V411.365C151.262 440.316 153.626 461.635 158.353 475.32C160.454 482.163 178.311 485.585 211.925 485.585H241.074C282.566 485.585 313.817 480.058 334.825 469.004C343.229 464.793 352.683 455.581 363.187 441.369C373.691 427.157 381.832 411.102 387.609 393.205C388.66 390.047 392.336 388.468 398.639 388.468C410.194 388.468 417.547 390.047 420.698 393.205L395.488 463.477C392.336 471.899 388.923 482.69 385.246 495.849C381.569 508.482 379.206 518.747 378.156 526.642C357.147 526.642 313.817 525.853 248.165 524.274C215.076 523.221 186.977 522.695 163.867 522.695C140.758 522.695 122.375 522.958 108.72 523.484L3.93912 526.642Z" fill="black" style="fill:black;fill-opacity:1;"/>
<path d="M465.604 527.432C463.503 525.326 462.453 520.326 462.453 512.43C462.453 504.534 463.503 500.587 465.604 500.587C469.806 500.587 475.583 499.797 482.936 498.218C490.814 496.112 497.905 493.744 504.207 491.112C511.035 487.954 514.712 485.322 515.237 483.216C518.914 468.478 520.752 449.265 520.752 425.578V296.878C520.752 273.191 516.55 256.347 508.147 246.345C503.42 240.555 497.38 236.871 490.027 235.292C483.199 233.186 477.159 231.87 471.907 231.344C466.655 230.291 464.028 228.975 464.028 227.396C464.028 212.657 465.341 204.762 467.968 203.709C480.048 202.656 497.642 200.024 520.752 195.813C544.386 191.602 566.446 186.865 586.929 181.601C587.979 181.074 590.343 180.548 594.019 180.022C598.221 178.969 600.585 178.443 601.11 178.443C603.211 178.443 605.049 180.285 606.625 183.97C608.2 187.654 608.988 190.549 608.988 192.655C607.938 200.024 607.15 206.077 606.625 210.815C606.099 215.552 605.837 218.974 605.837 221.079C605.837 223.711 606.362 225.027 607.412 225.027C607.938 225.027 608.988 224.238 610.564 222.658C623.169 210.025 639.188 198.971 658.621 189.497C678.579 180.022 698.8 175.284 719.283 175.284C787.036 175.284 820.913 229.238 820.913 337.146V412.155C820.913 445.317 822.751 469.004 826.428 483.216C827.478 485.322 831.154 487.954 837.457 491.112C844.285 493.744 851.375 496.112 858.728 498.218C866.607 499.797 872.121 500.587 875.273 500.587C876.848 500.587 877.636 504.534 877.636 512.43C878.161 519.799 877.899 524.8 876.848 527.432C874.747 526.906 867.394 526.116 854.789 525.063C842.709 524.537 829.316 524.01 814.61 523.484C800.429 522.431 789.137 521.905 780.734 521.905C772.33 521.905 761.301 522.431 747.645 523.484C734.515 524.01 721.91 524.537 709.83 525.063C698.275 526.116 690.922 526.906 687.771 527.432C685.67 525.326 684.619 520.326 684.619 512.43C684.619 504.534 685.67 500.587 687.771 500.587C691.972 500.587 697.487 499.797 704.315 498.218C711.143 496.112 717.445 493.744 723.223 491.112C729.525 487.954 732.939 485.322 733.464 483.216C735.565 475.32 737.141 466.635 738.191 457.16C739.242 447.686 739.767 437.158 739.767 425.578V350.569C739.767 306.879 733.727 276.349 721.647 258.979C710.092 241.608 691.447 232.923 665.711 232.923C648.905 232.923 634.198 237.66 621.593 247.135C608.988 256.083 602.685 265.822 602.685 276.349V412.155C602.685 445.317 604.524 469.004 608.2 483.216C609.251 485.322 612.927 487.954 619.23 491.112C625.532 493.744 632.36 496.112 639.713 498.218C647.066 499.797 652.056 500.587 654.682 500.587C656.783 500.587 657.833 504.534 657.833 512.43C658.358 519.799 658.096 524.8 657.045 527.432C654.419 526.906 646.804 526.116 634.198 525.063C622.118 524.537 609.251 524.01 595.595 523.484C581.939 522.431 570.91 521.905 562.506 521.905C554.103 521.905 542.811 522.431 528.63 523.484C514.449 524.01 501.056 524.537 488.451 525.063C476.371 526.116 468.755 526.906 465.604 527.432Z" fill="black" style="fill:black;fill-opacity:1;"/>
<path d="M1055.68 529.011C1032.05 529.011 1012.88 521.905 998.173 507.693C983.467 493.481 972.7 475.32 965.872 453.213C959.045 431.105 955.631 408.47 955.631 385.31V296.878C955.631 271.612 951.429 254.768 943.026 246.345C938.299 240.555 932.259 236.607 924.906 234.502C918.078 231.87 911.775 230.291 905.998 229.765C900.746 229.238 898.12 228.449 898.12 227.396C898.12 212.657 899.433 204.762 902.059 203.709C914.664 202.656 928.845 200.814 944.601 198.182C960.358 195.55 975.064 192.918 988.719 190.286C1002.37 187.128 1011.83 184.759 1017.08 183.18C1021.28 182.127 1025.22 181.074 1028.9 180.022C1032.57 178.969 1034.68 178.443 1035.2 178.443C1037.83 178.443 1039.67 180.285 1040.72 183.97C1042.29 187.654 1043.08 190.549 1043.08 192.655C1038.35 227.922 1035.99 251.083 1035.99 262.137V356.885C1035.99 397.943 1041.77 427.42 1053.32 445.317C1064.88 463.214 1083.52 472.162 1109.26 472.162C1126.06 472.162 1140.24 467.162 1151.8 457.16C1163.35 446.633 1169.13 436.632 1169.13 427.157V296.878C1169.13 271.612 1164.93 254.768 1156.53 246.345C1151.8 240.555 1145.76 236.607 1138.41 234.502C1131.58 232.396 1125.28 231.08 1119.5 230.554C1114.25 229.501 1111.62 228.449 1111.62 227.396C1111.62 212.131 1113.2 204.235 1116.35 203.709C1126.33 202.656 1138.93 200.814 1154.16 198.182C1169.39 195.55 1184.89 192.655 1200.64 189.497C1216.93 185.812 1230.84 182.654 1242.4 180.022L1248.7 178.443C1251.33 178.443 1253.43 180.285 1255 183.97C1256.58 187.654 1257.1 190.549 1256.58 192.655C1254.48 210.552 1252.9 225.29 1251.85 236.871C1250.8 247.925 1250.28 255.82 1250.28 260.558V416.892C1250.28 430.052 1250.8 441.369 1251.85 450.844C1252.9 460.319 1254.48 467.425 1256.58 472.162C1258.68 476.373 1262.88 479.268 1269.18 480.847C1275.49 481.9 1281.53 482.427 1287.3 482.427C1293.61 482.427 1297.55 482.69 1299.12 483.216C1301.22 483.742 1302.27 486.111 1302.27 490.322C1302.27 492.428 1301.75 496.112 1300.7 501.376C1299.65 506.114 1298.07 508.482 1295.97 508.482C1284.42 508.482 1267.08 510.588 1243.97 514.799C1221.39 519.01 1198.02 523.747 1173.86 529.011C1170.18 529.011 1168.34 524.8 1168.34 516.378V481.637C1168.34 479.005 1167.56 477.689 1165.98 477.689C1153.9 490.849 1137.88 502.692 1117.92 513.22C1097.96 523.747 1077.22 529.011 1055.68 529.011Z" fill="black" style="fill:black;fill-opacity:1;"/>
<path d="M1347.18 527.432C1345.08 525.326 1344.03 520.326 1344.03 512.43C1344.03 504.534 1345.08 500.587 1347.18 500.587C1351.38 500.587 1357.16 499.797 1364.51 498.218C1372.39 496.112 1379.48 493.744 1385.78 491.112C1392.61 487.954 1396.29 485.322 1396.81 483.216C1400.49 468.478 1402.33 449.265 1402.33 425.578V296.878C1402.33 271.612 1398.13 254.768 1389.72 246.345C1383.94 240.029 1377.38 235.818 1370.03 233.712C1363.2 231.607 1357.16 230.291 1351.91 229.765C1347.18 229.238 1344.82 228.449 1344.82 227.396C1344.82 212.131 1346.39 204.235 1349.54 203.709C1361.62 202.656 1377.9 200.287 1398.39 196.603C1419.4 192.918 1441.72 188.181 1465.35 182.39C1475.86 179.758 1481.37 178.443 1481.9 178.443C1484.52 178.443 1486.62 180.285 1488.2 183.97C1489.78 187.654 1490.3 190.549 1489.78 192.655C1488.73 200.024 1487.94 206.077 1487.41 210.815C1486.89 215.552 1486.62 218.974 1486.62 221.079C1486.62 223.711 1487.15 225.027 1488.2 225.027C1489.25 225.027 1490.56 224.238 1492.14 222.658C1504.74 210.025 1520.76 198.971 1540.2 189.497C1560.15 180.022 1580.38 175.284 1600.86 175.284C1620.82 175.284 1637.89 180.548 1652.07 191.076C1666.25 201.077 1676.75 214.236 1683.58 230.554C1698.81 214.763 1717.98 201.603 1741.09 191.076C1764.2 180.548 1788.89 175.284 1815.15 175.284C1840.36 175.284 1860.32 182.39 1875.02 196.603C1889.73 210.289 1900.23 228.975 1906.53 252.662C1913.36 275.823 1916.78 301.352 1916.78 329.25V412.155C1916.78 445.317 1918.61 469.004 1922.29 483.216C1923.34 485.322 1927.02 487.954 1933.32 491.112C1940.15 493.744 1947.24 496.112 1954.59 498.218C1961.94 499.797 1967.2 500.587 1970.35 500.587C1971.92 500.587 1972.71 504.534 1972.71 512.43C1973.24 519.799 1972.97 524.8 1971.92 527.432C1969.82 526.906 1962.47 526.116 1949.86 525.063C1937.78 524.537 1924.65 524.01 1910.47 523.484C1896.29 522.431 1885 521.905 1876.6 521.905C1868.19 521.905 1856.9 522.431 1842.72 523.484C1829.07 524.01 1815.93 524.537 1803.33 525.063C1791.25 526.116 1783.63 526.906 1780.48 527.432C1778.91 524.8 1778.12 519.799 1778.12 512.43C1778.12 504.534 1778.91 500.587 1780.48 500.587C1784.68 500.587 1790.46 499.797 1797.81 498.218C1805.17 496.112 1812 493.744 1818.3 491.112C1825.13 487.954 1828.8 485.322 1829.33 483.216C1833 468.478 1834.84 450.054 1834.84 427.946V347.41C1834.84 271.085 1810.42 232.923 1761.57 232.923C1744.24 232.923 1730.06 237.134 1719.03 245.556C1708 253.978 1701.17 262.137 1698.55 270.033C1698.55 276.875 1698.81 282.929 1699.34 288.193C1699.86 292.93 1700.12 302.668 1700.12 317.407V415.313C1700.12 430.052 1700.39 443.211 1700.91 454.792C1701.96 466.372 1703.54 475.847 1705.64 483.216C1706.69 485.322 1710.37 487.954 1716.67 491.112C1723.5 493.744 1730.59 496.112 1737.94 498.218C1745.29 499.797 1750.55 500.587 1753.7 500.587C1755.27 500.587 1756.06 504.534 1756.06 512.43C1756.59 519.799 1756.32 524.8 1755.27 527.432C1753.17 526.906 1745.82 526.116 1733.21 525.063C1721.13 524.537 1708 524.01 1693.82 523.484C1679.64 522.431 1668.35 521.905 1659.95 521.905C1651.54 521.905 1640.25 522.431 1626.07 523.484C1612.41 524.01 1599.28 524.537 1586.68 525.063C1574.6 526.116 1566.98 526.906 1563.83 527.432C1562.26 524.8 1561.47 519.799 1561.47 512.43C1561.47 504.534 1562.26 500.587 1563.83 500.587C1568.03 500.587 1573.81 499.797 1581.16 498.218C1588.52 496.112 1595.34 493.744 1601.65 491.112C1608.47 487.954 1612.15 485.322 1612.68 483.216C1616.35 468.478 1618.19 449.265 1618.19 425.578V349.779C1618.19 308.721 1612.15 278.981 1600.07 260.558C1587.99 242.134 1570.13 232.923 1546.5 232.923C1530.74 232.923 1516.3 237.397 1503.17 246.345C1490.04 255.294 1483.47 265.295 1483.47 276.349V412.155C1483.47 443.738 1485.57 467.425 1489.78 483.216C1490.83 485.322 1494.5 487.954 1500.81 491.112C1507.11 493.744 1513.67 496.112 1520.5 498.218C1527.85 499.797 1533.11 500.587 1536.26 500.587C1538.36 500.587 1539.41 504.534 1539.41 512.43C1539.93 519.799 1539.67 524.8 1538.62 527.432C1535.99 526.906 1528.38 526.116 1515.77 525.063C1503.69 524.537 1490.83 524.01 1477.17 523.484C1463.51 522.431 1452.49 521.905 1444.08 521.905C1435.68 521.905 1424.12 522.431 1409.42 523.484C1395.24 524.01 1382.11 524.537 1370.03 525.063C1357.95 526.116 1350.33 526.906 1347.18 527.432Z" fill="black" style="fill:black;fill-opacity:1;"/>
<path d="M2122.4 532.169C2089.31 532.169 2055.43 524.8 2020.77 510.061C2019.19 503.745 2017.35 494.796 2015.25 483.216C2013.68 471.636 2012.1 460.055 2010.53 448.475C2009.48 436.368 2008.95 427.157 2008.95 420.84C2012.63 418.208 2016.3 416.892 2019.98 416.892C2031.54 416.892 2037.84 418.998 2038.89 423.209C2043.09 445.317 2053.33 463.214 2069.61 476.9C2086.42 490.059 2104.54 496.639 2123.97 496.639C2138.68 496.639 2150.76 492.954 2160.21 485.585C2169.67 477.689 2174.39 466.109 2174.39 450.844C2174.39 439.79 2170.19 429.789 2161.79 420.84C2153.39 411.365 2145.51 404.786 2138.15 401.101L2086.16 373.466C2062 360.833 2043.35 346.884 2030.22 331.619C2017.09 315.828 2010.53 296.878 2010.53 274.77C2010.53 253.188 2016.3 235.028 2027.86 220.29C2039.94 205.551 2055.43 194.234 2074.34 186.338C2093.77 178.443 2114.52 174.495 2136.58 174.495C2164.94 174.495 2195.4 178.969 2227.97 187.917C2230.59 199.498 2232.43 212.657 2233.48 227.396C2235.06 242.134 2236.11 258.452 2236.63 276.349C2236.63 280.56 2233.22 282.666 2226.39 282.666C2214.84 282.666 2208.53 280.56 2207.48 276.349C2203.81 257.926 2195.93 242.398 2183.85 229.765C2172.29 216.605 2156.54 210.025 2136.58 210.025C2121.35 210.025 2109.27 213.447 2100.34 220.29C2091.94 227.133 2087.73 236.871 2087.73 249.504C2087.73 263.19 2092.99 274.77 2103.49 284.245C2113.99 293.72 2128.18 302.931 2146.03 311.88C2159.69 318.723 2172.82 326.092 2185.42 333.988C2198.55 341.883 2210.9 350.569 2222.45 360.043C2242.94 376.361 2253.18 397.943 2253.18 424.788C2253.18 446.896 2247.14 466.109 2235.06 482.427C2223.5 498.218 2207.75 510.588 2187.79 519.536C2168.35 527.958 2146.56 532.169 2122.4 532.169Z" fill="black" style="fill:black;fill-opacity:1;"/>
<path d="M2361.11 533.749C2343.25 533.749 2329.86 528.222 2320.93 517.168C2312.53 505.587 2308.32 493.217 2308.32 480.058C2308.32 466.898 2312.53 454.792 2320.93 443.738C2329.86 432.684 2343.25 427.157 2361.11 427.157C2378.44 427.157 2391.31 432.684 2399.71 443.738C2408.64 454.792 2413.11 467.162 2413.11 480.847C2413.11 494.007 2408.64 506.114 2399.71 517.168C2391.31 528.222 2378.44 533.749 2361.11 533.749Z" fill="black" style="fill:black;fill-opacity:1;"/>
</svg>
